<svg width="1417" height="788" viewBox="0 0 1417 788" fill="none" xmlns="http://www.w3.org/2000/svg">
<g clip-path="url(#clip0_3566_96731)">
<path fill-rule="evenodd" clip-rule="evenodd" d="M1.19101 776.316C-4.8639 764.189 12.8472 740.196 39.729 693.091C78.0063 626.019 269.918 261.641 361.09 87.8358C365.854 80.0518 369.848 73.3249 373.299 67.5135C392.636 34.9456 394.902 31.1284 419.954 31.1284H708.499V788.131C618.057 788.176 526.021 788.131 440.243 788.088C332.342 788.035 234.344 787.987 161.879 788.131C52.9415 788.131 8.71542 791.386 1.19101 776.316ZM1255.12 788.131C1364.06 788.131 1408.28 791.386 1415.81 776.316C1421.86 764.189 1404.15 740.196 1377.27 693.091C1338.99 626.019 1147.08 261.641 1055.91 87.8358C1051.14 80.0518 1047.15 73.3249 1043.7 67.5134C1024.36 34.9456 1022.1 31.1284 997.044 31.1284H708.499V788.131C798.941 788.176 890.977 788.131 976.755 788.088C1084.66 788.035 1182.65 787.987 1255.12 788.131Z" fill="#00A34F"/>
<mask id="mask0_3566_96731" style="mask-type:alpha" maskUnits="userSpaceOnUse" x="0" y="31" width="1417" height="758">
<path fill-rule="evenodd" clip-rule="evenodd" d="M1.19101 776.316C-4.8639 764.189 12.8472 740.196 39.729 693.091C78.0063 626.019 269.918 261.641 361.09 87.8358C365.854 80.0518 369.848 73.3249 373.299 67.5135C392.636 34.9456 394.902 31.1284 419.954 31.1284H708.499V788.131C618.057 788.176 526.021 788.131 440.243 788.088C332.342 788.035 234.344 787.987 161.879 788.131C52.9415 788.131 8.71542 791.386 1.19101 776.316ZM1255.12 788.131C1364.06 788.131 1408.28 791.386 1415.81 776.316C1421.86 764.189 1404.15 740.196 1377.27 693.091C1338.99 626.019 1147.08 261.641 1055.91 87.8358C1051.14 80.0518 1047.15 73.3249 1043.7 67.5134C1024.36 34.9456 1022.1 31.1284 997.044 31.1284H708.499V788.131C798.941 788.176 890.977 788.131 976.755 788.088C1084.66 788.035 1182.65 787.987 1255.12 788.131Z" fill="#00A34F"/>
</mask>
<g mask="url(#mask0_3566_96731)">
<rect x="-8.5" y="512" width="1404" height="132" fill="#009B4C"/>
<rect x="-8.5" y="512" width="1404" height="132" fill="#009B4C"/>
<rect x="100.99" y="350.257" width="1185.33" height="85.8784" fill="#009B4C"/>
<rect x="100.99" y="350.257" width="1185.33" height="85.8784" fill="#009B4C"/>
<rect x="100.99" y="200.765" width="1185.33" height="63.6136" fill="#009B4C"/>
<rect x="100.99" y="200.765" width="1185.33" height="63.6136" fill="#009B4C"/>
<rect x="100.99" y="73.5371" width="1185.33" height="63.6136" fill="#009B4C"/>
<rect x="100.99" y="73.5371" width="1185.33" height="63.6136" fill="#009B4C"/>
</g>
<path d="M600.887 137.365C622.772 152.47 663.011 162.596 709.03 162.596C755.048 162.596 795.288 152.47 817.173 137.365H600.887Z" stroke="white" stroke-width="2.12045"/>
<path d="M1267.78 577.942H145.428V581.769H1267.78V577.942Z" fill="white"/>
<path d="M708.133 587.438C713.201 587.438 717.31 583.859 717.31 579.444C717.31 575.029 713.201 571.45 708.133 571.45C703.065 571.45 698.957 575.029 698.957 579.444C698.957 583.859 703.065 587.438 708.133 587.438Z" fill="white"/>
<path d="M707.969 676.806C801.95 676.806 878.136 635.272 878.136 584.036C878.136 532.801 801.95 491.267 707.969 491.267C613.989 491.267 537.803 532.801 537.803 584.036C537.803 635.272 613.989 676.806 707.969 676.806Z" stroke="white" stroke-width="3.18068"/>
<path d="M708.408 118.797C711.87 118.797 714.676 117.35 714.676 115.567C714.676 113.783 711.87 112.336 708.408 112.336C704.945 112.336 702.139 113.783 702.139 115.567C702.139 117.35 704.945 118.797 708.408 118.797Z" fill="white"/>
<path d="M492.763 137.211L532.065 57.5737H886.987L916.981 137.211H492.763Z" stroke="white" stroke-width="2"/>
<path d="M587.986 97.9828L602.193 57.5737H813.441L821.778 97.9828H587.986Z" stroke="white" stroke-width="2"/>
<path d="M32.6525 796.673L411.805 57.5737H1010.24L1376.95 796.673H32.6525Z" stroke="white" stroke-width="2"/>
<path d="M406.865 67.3023C416.556 65.8862 424.739 62.527 429.731 57.6338H411.636L406.865 67.3023Z" stroke="white" stroke-width="2.12045"/>
<path d="M1014.91 67.1758C1005.21 65.7598 996.572 62.527 991.581 57.6338H1010.13L1014.91 67.1758Z" stroke="white" stroke-width="2.12045"/>
<mask id="mask1_3566_96731" style="mask-type:alpha" maskUnits="userSpaceOnUse" x="393" y="0" width="631" height="46">
<path d="M393.051 8.48183C393.051 3.79745 396.848 0 401.533 0H1015.4C1020.09 0 1023.89 3.79744 1023.89 8.48182V45.5898H393.051V8.48183Z" fill="url(#paint0_linear_3566_96731)"/>
</mask>
<g mask="url(#mask1_3566_96731)">
<path d="M393.051 8.48183C393.051 3.79745 396.848 0 401.533 0H1015.4C1020.09 0 1023.89 3.79744 1023.89 8.48182V45.5898H393.051V8.48183Z" fill="url(#paint1_linear_3566_96731)"/>
</g>
<path opacity="0.102" d="M645.387 11.3745L645.387 55.828H771.445L770.419 11.3745H645.387Z" fill="black"/>
<path d="M649.605 13.3234L652.492 14.9012V18.0569L649.605 19.6347L646.717 18.0569V14.9012L649.605 13.3234ZM649.605 12.937L646.396 14.708V18.2501L649.605 20.0211L652.813 18.2501V14.708L649.605 12.937Z" fill="#CECECE"/>
<path d="M655.702 13.3234L658.59 14.9012V18.0569L655.702 19.6347L652.815 18.0569V14.9012L655.702 13.3234ZM655.702 12.937L652.494 14.708V18.2501L655.702 20.0211L658.911 18.2501V14.708L655.702 12.937Z" fill="#CECECE"/>
<path d="M661.796 13.3234L664.684 14.9012V18.0569L661.796 19.6347L658.909 18.0569V14.9012L661.796 13.3234ZM661.796 12.937L658.588 14.708V18.2501L661.796 20.0211L665.004 18.2501V14.708L661.796 12.937Z" fill="#CECECE"/>
<path d="M667.892 13.3234L670.779 14.9012V18.0569L667.892 19.6347L665.004 18.0569V14.9012L667.892 13.3234ZM667.892 12.937L664.684 14.708V18.2501L667.892 20.0211L671.1 18.2501V14.708L667.892 12.937Z" fill="#CECECE"/>
<path d="M673.989 13.3234L676.877 14.9012V18.0569L673.989 19.6347L671.102 18.0569V14.9012L673.989 13.3234ZM673.989 12.937L670.781 14.708V18.2501L673.989 20.0211L677.198 18.2501V14.708L673.989 12.937Z" fill="#CECECE"/>
<path d="M680.083 13.3234L682.971 14.9012V18.0569L680.083 19.6347L677.196 18.0569V14.9012L680.083 13.3234ZM680.083 12.937L676.875 14.708V18.2501L680.083 20.0211L683.291 18.2501V14.708L680.083 12.937Z" fill="#CECECE"/>
<path d="M686.179 13.3234L689.066 14.9012V18.0569L686.179 19.6347L683.292 18.0569V14.9012L686.179 13.3234ZM686.179 12.937L682.971 14.708V18.2501L686.179 20.0211L689.387 18.2501V14.708L686.179 12.937Z" fill="#CECECE"/>
<path d="M692.277 13.3234L695.164 14.9012V18.0569L692.277 19.6347L689.389 18.0569V14.9012L692.277 13.3234ZM692.277 12.937L689.068 14.708V18.2501L692.277 20.0211L695.485 18.2501V14.708L692.277 12.937Z" fill="#CECECE"/>
<path d="M698.372 13.3234L701.26 14.9012V18.0569L698.372 19.6347L695.485 18.0569V14.9012L698.372 13.3234ZM698.372 12.937L695.164 14.708V18.2501L698.372 20.0211L701.58 18.2501V14.708L698.372 12.937Z" fill="#CECECE"/>
<path d="M704.466 13.3234L707.353 14.9012V18.0569L704.466 19.6347L701.579 18.0569V14.9012L704.466 13.3234ZM704.466 12.937L701.258 14.708V18.2501L704.466 20.0211L707.674 18.2501V14.708L704.466 12.937Z" fill="#CECECE"/>
<path d="M710.562 13.3234L713.449 14.9012V18.0569L710.562 19.6347L707.674 18.0569V14.9012L710.562 13.3234ZM710.562 12.937L707.354 14.708V18.2501L710.562 20.0211L713.77 18.2501V14.708L710.562 12.937Z" fill="#CECECE"/>
<path d="M716.657 13.3234L719.545 14.9012V18.0569L716.657 19.6347L713.77 18.0569V14.9012L716.657 13.3234ZM716.657 12.937L713.449 14.708V18.2501L716.657 20.0211L719.866 18.2501V14.708L716.657 12.937Z" fill="#CECECE"/>
<path d="M722.753 13.3234L725.641 14.9012V18.0569L722.753 19.6347L719.866 18.0569V14.9012L722.753 13.3234ZM722.753 12.937L719.545 14.708V18.2501L722.753 20.0211L725.961 18.2501V14.708L722.753 12.937Z" fill="#CECECE"/>
<path d="M728.849 13.3234L731.736 14.9012V18.0569L728.849 19.6347L725.961 18.0569V14.9012L728.849 13.3234ZM728.849 12.937L725.641 14.708V18.2501L728.849 20.0211L732.057 18.2501V14.708L728.849 12.937Z" fill="#CECECE"/>
<path d="M734.945 13.3234L737.832 14.9012V18.0569L734.945 19.6347L732.057 18.0569V14.9012L734.945 13.3234ZM734.945 12.937L731.736 14.708V18.2501L734.945 20.0211L738.153 18.2501V14.708L734.945 12.937Z" fill="#CECECE"/>
<path d="M741.04 13.3234L743.928 14.9012V18.0569L741.04 19.6347L738.153 18.0569V14.9012L741.04 13.3234ZM741.04 12.937L737.832 14.708V18.2501L741.04 20.0211L744.248 18.2501V14.708L741.04 12.937Z" fill="#CECECE"/>
<path d="M747.136 13.3234L750.023 14.9012V18.0569L747.136 19.6347L744.249 18.0569V14.9012L747.136 13.3234ZM747.136 12.937L743.928 14.708V18.2501L747.136 20.0211L750.344 18.2501V14.708L747.136 12.937Z" fill="#CECECE"/>
<path d="M753.231 13.3234L756.118 14.9012V18.0569L753.231 19.6347L750.343 18.0569V14.9012L753.231 13.3234ZM753.231 12.937L750.022 14.708V18.2501L753.231 20.0211L756.439 18.2501V14.708L753.231 12.937Z" fill="#CECECE"/>
<path d="M759.326 13.3234L762.214 14.9012V18.0569L759.326 19.6347L756.439 18.0569V14.9012L759.326 13.3234ZM759.326 12.937L756.118 14.708V18.2501L759.326 20.0211L762.535 18.2501V14.708L759.326 12.937Z" fill="#CECECE"/>
<path d="M765.423 13.3234L768.31 14.9012V18.0569L765.423 19.6347L762.536 18.0569V14.9012L765.423 13.3234ZM765.423 12.937L762.215 14.708V18.2501L765.423 20.0211L768.631 18.2501V14.708L765.423 12.937Z" fill="#CECECE"/>
<path d="M652.654 18.4758L655.541 20.0536V23.2093L652.654 24.7871L649.766 23.2093V20.0536L652.654 18.4758ZM652.654 18.1216L649.445 19.8926V23.4347L652.654 25.2057L655.862 23.4347V19.8926L652.654 18.1216Z" fill="#CECECE"/>
<path d="M658.749 18.4758L661.637 20.0536V23.2093L658.749 24.7871L655.862 23.2093V20.0536L658.749 18.4758ZM658.749 18.1216L655.541 19.8926V23.4347L658.749 25.2057L661.957 23.4347V19.8926L658.749 18.1216Z" fill="#CECECE"/>
<path d="M664.845 18.4758L667.732 20.0536V23.2093L664.845 24.7871L661.958 23.2093V20.0536L664.845 18.4758ZM664.845 18.1216L661.637 19.8926V23.4347L664.845 25.2057L668.053 23.4347V19.8926L664.845 18.1216Z" fill="#CECECE"/>
<path d="M670.941 18.4758L673.828 20.0536V23.2093L670.941 24.7871L668.053 23.2093V20.0536L670.941 18.4758ZM670.941 18.1216L667.732 19.8926V23.4347L670.941 25.2057L674.149 23.4347V19.8926L670.941 18.1216Z" fill="#CECECE"/>
<path d="M677.036 18.4758L679.924 20.0536V23.2093L677.036 24.7871L674.149 23.2093V20.0536L677.036 18.4758ZM677.036 18.1216L673.828 19.8926V23.4347L677.036 25.2057L680.245 23.4347V19.8926L677.036 18.1216Z" fill="#CECECE"/>
<path d="M683.13 18.4758L686.017 20.0536V23.2093L683.13 24.7871L680.243 23.2093V20.0536L683.13 18.4758ZM683.13 18.1216L679.922 19.8926V23.4347L683.13 25.2057L686.338 23.4347V19.8926L683.13 18.1216Z" fill="#CECECE"/>
<path d="M689.228 18.4758L692.115 20.0536V23.2093L689.228 24.7871L686.34 23.2093V20.0536L689.228 18.4758ZM689.228 18.1216L686.02 19.8926V23.4347L689.228 25.2057L692.436 23.4347V19.8926L689.228 18.1216Z" fill="#CECECE"/>
<path d="M695.323 18.4758L698.211 20.0536V23.2093L695.323 24.7871L692.436 23.2093V20.0536L695.323 18.4758ZM695.323 18.1216L692.115 19.8926V23.4347L695.323 25.2057L698.532 23.4347V19.8926L695.323 18.1216Z" fill="#CECECE"/>
<path d="M701.419 18.4758L704.307 20.0536V23.2093L701.419 24.7871L698.532 23.2093V20.0536L701.419 18.4758ZM701.419 18.1216L698.211 19.8926V23.4347L701.419 25.2057L704.627 23.4347V19.8926L701.419 18.1216Z" fill="#CECECE"/>
<path d="M707.515 18.4758L710.402 20.0536V23.2093L707.515 24.7871L704.627 23.2093V20.0536L707.515 18.4758ZM707.515 18.1216L704.307 19.8926V23.4347L707.515 25.2057L710.723 23.4347V19.8926L707.515 18.1216Z" fill="#CECECE"/>
<path d="M713.611 18.4758L716.498 20.0536V23.2093L713.611 24.7871L710.723 23.2093V20.0536L713.611 18.4758ZM713.611 18.1216L710.402 19.8926V23.4347L713.611 25.2057L716.819 23.4347V19.8926L713.611 18.1216Z" fill="#CECECE"/>
<path d="M719.706 18.4758L722.594 20.0536V23.2093L719.706 24.7871L716.819 23.2093V20.0536L719.706 18.4758ZM719.706 18.1216L716.498 19.8926V23.4347L719.706 25.2057L722.914 23.4347V19.8926L719.706 18.1216Z" fill="#CECECE"/>
<path d="M725.8 18.4758L728.687 20.0536V23.2093L725.8 24.7871L722.913 23.2093V20.0536L725.8 18.4758ZM725.8 18.1216L722.592 19.8926V23.4347L725.8 25.2057L729.008 23.4347V19.8926L725.8 18.1216Z" fill="#CECECE"/>
<path d="M731.898 18.4758L734.785 20.0536V23.2093L731.898 24.7871L729.01 23.2093V20.0536L731.898 18.4758ZM731.898 18.1216L728.689 19.8926V23.4347L731.898 25.2057L735.106 23.4347V19.8926L731.898 18.1216Z" fill="#CECECE"/>
<path d="M737.991 18.4758L740.879 20.0536V23.2093L737.991 24.7871L735.104 23.2093V20.0536L737.991 18.4758ZM737.991 18.1216L734.783 19.8926V23.4347L737.991 25.2057L741.2 23.4347V19.8926L737.991 18.1216Z" fill="#CECECE"/>
<path d="M744.088 18.4758L746.975 20.0536V23.2093L744.088 24.7871L741.201 23.2093V20.0536L744.088 18.4758ZM744.088 18.1216L740.88 19.8926V23.4347L744.088 25.2057L747.296 23.4347V19.8926L744.088 18.1216Z" fill="#CECECE"/>
<path d="M750.184 18.4758L753.071 20.0536V23.2093L750.184 24.7871L747.296 23.2093V20.0536L750.184 18.4758ZM750.184 18.1216L746.976 19.8926V23.4347L750.184 25.2057L753.392 23.4347V19.8926L750.184 18.1216Z" fill="#CECECE"/>
<path d="M756.279 18.4758L759.166 20.0536V23.2093L756.279 24.7871L753.391 23.2093V20.0536L756.279 18.4758ZM756.279 18.1216L753.07 19.8926V23.4347L756.279 25.2057L759.487 23.4347V19.8926L756.279 18.1216Z" fill="#CECECE"/>
<path d="M762.374 18.4758L765.262 20.0536V23.2093L762.374 24.7871L759.487 23.2093V20.0536L762.374 18.4758ZM762.374 18.1216L759.166 19.8926V23.4347L762.374 25.2057L765.582 23.4347V19.8926L762.374 18.1216Z" fill="#CECECE"/>
<path d="M768.471 18.4758L771.358 20.0536V23.2093L768.471 24.7871L765.584 23.2093V20.0536L768.471 18.4758ZM768.471 18.1216L765.263 19.8926V23.4347L768.471 25.2057L771.679 23.4347V19.8926L768.471 18.1216Z" fill="#CECECE"/>
<path d="M649.605 23.6921L652.492 25.2699V28.4256L649.605 30.0034L646.717 28.4256V25.2699L649.605 23.6921ZM649.605 23.3379L646.396 25.1089V28.651L649.605 30.422L652.813 28.651V25.1089L649.605 23.3379Z" fill="#CECECE"/>
<path d="M655.7 23.6921L658.588 25.2699V28.4256L655.7 30.0034L652.813 28.4256V25.2699L655.7 23.6921ZM655.7 23.3379L652.492 25.1089V28.651L655.7 30.422L658.909 28.651V25.1089L655.7 23.3379Z" fill="#CECECE"/>
<path d="M661.796 23.6921L664.684 25.2699V28.4256L661.796 30.0034L658.909 28.4256V25.2699L661.796 23.6921ZM661.796 23.3379L658.588 25.1089V28.651L661.796 30.422L665.004 28.651V25.1089L661.796 23.3379Z" fill="#CECECE"/>
<path d="M667.892 23.6921L670.779 25.2699V28.4256L667.892 30.0034L665.004 28.4256V25.2699L667.892 23.6921ZM667.892 23.3379L664.684 25.1089V28.651L667.892 30.422L671.1 28.651V25.1089L667.892 23.3379Z" fill="#CECECE"/>
<path d="M673.988 23.6921L676.875 25.2699V28.4256L673.988 30.0034L671.1 28.4256V25.2699L673.988 23.6921ZM673.988 23.3379L670.779 25.1089V28.651L673.988 30.422L677.196 28.651V25.1089L673.988 23.3379Z" fill="#CECECE"/>
<path d="M680.081 23.6921L682.969 25.2699V28.4256L680.081 30.0034L677.194 28.4256V25.2699L680.081 23.6921ZM680.081 23.3379L676.873 25.1089V28.651L680.081 30.422L683.289 28.651V25.1089L680.081 23.3379Z" fill="#CECECE"/>
<path d="M686.179 23.6921L689.066 25.2699V28.4256L686.179 30.0034L683.292 28.4256V25.2699L686.179 23.6921ZM686.179 23.3379L682.971 25.1089V28.651L686.179 30.422L689.387 28.651V25.1089L686.179 23.3379Z" fill="#CECECE"/>
<path d="M692.275 23.6921L695.162 25.2699V28.4256L692.275 30.0034L689.387 28.4256V25.2699L692.275 23.6921ZM692.275 23.3379L689.066 25.1089V28.651L692.275 30.422L695.483 28.651V25.1089L692.275 23.3379Z" fill="#CECECE"/>
<path d="M698.37 23.6921L701.258 25.2699V28.4256L698.37 30.0034L695.483 28.4256V25.2699L698.37 23.6921ZM698.37 23.3379L695.162 25.1089V28.651L698.37 30.422L701.579 28.651V25.1089L698.37 23.3379Z" fill="#CECECE"/>
<path d="M704.466 23.6921L707.353 25.2699V28.4256L704.466 30.0034L701.579 28.4256V25.2699L704.466 23.6921ZM704.466 23.3379L701.258 25.1089V28.651L704.466 30.422L707.674 28.651V25.1089L704.466 23.3379Z" fill="#CECECE"/>
<path d="M710.562 23.6921L713.449 25.2699V28.4256L710.562 30.0034L707.674 28.4256V25.2699L710.562 23.6921ZM710.562 23.3379L707.354 25.1089V28.651L710.562 30.422L713.77 28.651V25.1089L710.562 23.3379Z" fill="#CECECE"/>
<path d="M716.655 23.6921L719.543 25.2699V28.4256L716.655 30.0034L713.768 28.4256V25.2699L716.655 23.6921ZM716.655 23.3379L713.447 25.1089V28.651L716.655 30.422L719.864 28.651V25.1089L716.655 23.3379Z" fill="#CECECE"/>
<path d="M722.751 23.6921L725.639 25.2699V28.4256L722.751 30.0034L719.864 28.4256V25.2699L722.751 23.6921ZM722.751 23.3379L719.543 25.1089V28.651L722.751 30.422L725.959 28.651V25.1089L722.751 23.3379Z" fill="#CECECE"/>
<path d="M728.849 23.6921L731.736 25.2699V28.4256L728.849 30.0034L725.961 28.4256V25.2699L728.849 23.6921ZM728.849 23.3379L725.641 25.1089V28.651L728.849 30.422L732.057 28.651V25.1089L728.849 23.3379Z" fill="#CECECE"/>
<path d="M734.943 23.6921L737.83 25.2699V28.4256L734.943 30.0034L732.055 28.4256V25.2699L734.943 23.6921ZM734.943 23.3379L731.734 25.1089V28.651L734.943 30.422L738.151 28.651V25.1089L734.943 23.3379Z" fill="#CECECE"/>
<path d="M741.038 23.6921L743.926 25.2699V28.4256L741.038 30.0034L738.151 28.4256V25.2699L741.038 23.6921ZM741.038 23.3379L737.83 25.1089V28.651L741.038 30.422L744.247 28.651V25.1089L741.038 23.3379Z" fill="#CECECE"/>
<path d="M747.135 23.6921L750.022 25.2699V28.4256L747.135 30.0034L744.248 28.4256V25.2699L747.135 23.6921ZM747.135 23.3379L743.927 25.1089V28.651L747.135 30.422L750.343 28.651V25.1089L747.135 23.3379Z" fill="#CECECE"/>
<path d="M753.23 23.6921L756.117 25.2699V28.4256L753.23 30.0034L750.342 28.4256V25.2699L753.23 23.6921ZM753.23 23.3379L750.021 25.1089V28.651L753.23 30.422L756.438 28.651V25.1089L753.23 23.3379Z" fill="#CECECE"/>
<path d="M759.325 23.6921L762.213 25.2699V28.4256L759.325 30.0034L756.438 28.4256V25.2699L759.325 23.6921ZM759.325 23.3379L756.117 25.1089V28.651L759.325 30.422L762.534 28.651V25.1089L759.325 23.3379Z" fill="#CECECE"/>
<path d="M765.422 23.6921L768.309 25.2699V28.4256L765.422 30.0034L762.535 28.4256V25.2699L765.422 23.6921ZM765.422 23.3379L762.214 25.1089V28.651L765.422 30.422L768.63 28.651V25.1089L765.422 23.3379Z" fill="#CECECE"/>
<path d="M652.654 28.8766L655.541 30.4545V33.6101L652.654 35.1879L649.766 33.6101V30.4545L652.654 28.8766ZM652.654 28.4902L649.445 30.2613V33.8033L652.654 35.5744L655.862 33.8033V30.2613L652.654 28.4902Z" fill="#CECECE"/>
<path d="M658.749 28.8766L661.637 30.4545V33.6101L658.749 35.1879L655.862 33.6101V30.4545L658.749 28.8766ZM658.749 28.4902L655.541 30.2613V33.8033L658.749 35.5744L661.957 33.8033V30.2613L658.749 28.4902Z" fill="#CECECE"/>
<path d="M664.845 28.8766L667.732 30.4545V33.6101L664.845 35.1879L661.958 33.6101V30.4545L664.845 28.8766ZM664.845 28.4902L661.637 30.2613V33.8033L664.845 35.5744L668.053 33.8033V30.2613L664.845 28.4902Z" fill="#CECECE"/>
<path d="M670.941 28.8766L673.828 30.4545V33.6101L670.941 35.1879L668.053 33.6101V30.4545L670.941 28.8766ZM670.941 28.4902L667.732 30.2613V33.8033L670.941 35.5744L674.149 33.8033V30.2613L670.941 28.4902Z" fill="#CECECE"/>
<path d="M677.036 28.8766L679.924 30.4545V33.6101L677.036 35.1879L674.149 33.6101V30.4545L677.036 28.8766ZM677.036 28.4902L673.828 30.2613V33.8033L677.036 35.5744L680.245 33.8033V30.2613L677.036 28.4902Z" fill="#CECECE"/>
<path d="M683.13 28.8766L686.017 30.4545V33.6101L683.13 35.1879L680.243 33.6101V30.4545L683.13 28.8766ZM683.13 28.4902L679.922 30.2613V33.8033L683.13 35.5744L686.338 33.8033V30.2613L683.13 28.4902Z" fill="#CECECE"/>
<path d="M689.228 28.8766L692.115 30.4545V33.6101L689.228 35.1879L686.34 33.6101V30.4545L689.228 28.8766ZM689.228 28.4902L686.02 30.2613V33.8033L689.228 35.5744L692.436 33.8033V30.2613L689.228 28.4902Z" fill="#CECECE"/>
<path d="M695.323 28.8766L698.211 30.4545V33.6101L695.323 35.1879L692.436 33.6101V30.4545L695.323 28.8766ZM695.323 28.4902L692.115 30.2613V33.8033L695.323 35.5744L698.532 33.8033V30.2613L695.323 28.4902Z" fill="#CECECE"/>
<path d="M701.419 28.8766L704.307 30.4545V33.6101L701.419 35.1879L698.532 33.6101V30.4545L701.419 28.8766ZM701.419 28.4902L698.211 30.2613V33.8033L701.419 35.5744L704.627 33.8033V30.2613L701.419 28.4902Z" fill="#CECECE"/>
<path d="M707.515 28.8766L710.402 30.4545V33.6101L707.515 35.1879L704.627 33.6101V30.4545L707.515 28.8766ZM707.515 28.4902L704.307 30.2613V33.8033L707.515 35.5744L710.723 33.8033V30.2613L707.515 28.4902Z" fill="#CECECE"/>
<path d="M713.611 28.8766L716.498 30.4545V33.6101L713.611 35.1879L710.723 33.6101V30.4545L713.611 28.8766ZM713.611 28.4902L710.402 30.2613V33.8033L713.611 35.5744L716.819 33.8033V30.2613L713.611 28.4902Z" fill="#CECECE"/>
<path d="M719.706 28.8766L722.594 30.4545V33.6101L719.706 35.1879L716.819 33.6101V30.4545L719.706 28.8766ZM719.706 28.4902L716.498 30.2613V33.8033L719.706 35.5744L722.914 33.8033V30.2613L719.706 28.4902Z" fill="#CECECE"/>
<path d="M725.8 28.8766L728.687 30.4545V33.6101L725.8 35.1879L722.913 33.6101V30.4545L725.8 28.8766ZM725.8 28.4902L722.592 30.2613V33.8033L725.8 35.5744L729.008 33.8033V30.2613L725.8 28.4902Z" fill="#CECECE"/>
<path d="M731.898 28.8766L734.785 30.4545V33.6101L731.898 35.1879L729.01 33.6101V30.4545L731.898 28.8766ZM731.898 28.4902L728.689 30.2613V33.8033L731.898 35.5744L735.106 33.8033V30.2613L731.898 28.4902Z" fill="#CECECE"/>
<path d="M737.991 28.8766L740.879 30.4545V33.6101L737.991 35.1879L735.104 33.6101V30.4545L737.991 28.8766ZM737.991 28.4902L734.783 30.2613V33.8033L737.991 35.5744L741.2 33.8033V30.2613L737.991 28.4902Z" fill="#CECECE"/>
<path d="M744.088 28.8766L746.975 30.4545V33.6101L744.088 35.1879L741.201 33.6101V30.4545L744.088 28.8766ZM744.088 28.4902L740.88 30.2613V33.8033L744.088 35.5744L747.296 33.8033V30.2613L744.088 28.4902Z" fill="#CECECE"/>
<path d="M750.184 28.8766L753.071 30.4545V33.6101L750.184 35.1879L747.296 33.6101V30.4545L750.184 28.8766ZM750.184 28.4902L746.976 30.2613V33.8033L750.184 35.5744L753.392 33.8033V30.2613L750.184 28.4902Z" fill="#CECECE"/>
<path d="M756.279 28.8766L759.166 30.4545V33.6101L756.279 35.1879L753.391 33.6101V30.4545L756.279 28.8766ZM756.279 28.4902L753.07 30.2613V33.8033L756.279 35.5744L759.487 33.8033V30.2613L756.279 28.4902Z" fill="#CECECE"/>
<path d="M762.374 28.8766L765.262 30.4545V33.6101L762.374 35.1879L759.487 33.6101V30.4545L762.374 28.8766ZM762.374 28.4902L759.166 30.2613V33.8033L762.374 35.5744L765.582 33.8033V30.2613L762.374 28.4902Z" fill="#CECECE"/>
<path d="M768.471 28.8766L771.358 30.4545V33.6101L768.471 35.1879L765.584 33.6101V30.4545L768.471 28.8766ZM768.471 28.4902L765.263 30.2613V33.8033L768.471 35.5744L771.679 33.8033V30.2613L768.471 28.4902Z" fill="#CECECE"/>
<path d="M649.605 34.0934L652.492 35.6713V38.8269L649.605 40.4047L646.717 38.8269V35.6713L649.605 34.0934ZM649.605 33.707L646.396 35.4781V39.0201L649.605 40.7912L652.813 39.0201V35.4781L649.605 33.707Z" fill="#CECECE"/>
<path d="M655.7 34.0934L658.588 35.6713V38.8269L655.7 40.4047L652.813 38.8269V35.6713L655.7 34.0934ZM655.7 33.707L652.492 35.4781V39.0201L655.7 40.7912L658.909 39.0201V35.4781L655.7 33.707Z" fill="#CECECE"/>
<path d="M661.796 34.0934L664.684 35.6713V38.8269L661.796 40.4047L658.909 38.8269V35.6713L661.796 34.0934ZM661.796 33.707L658.588 35.4781V39.0201L661.796 40.7912L665.004 39.0201V35.4781L661.796 33.707Z" fill="#CECECE"/>
<path d="M667.892 34.0934L670.779 35.6713V38.8269L667.892 40.4047L665.004 38.8269V35.6713L667.892 34.0934ZM667.892 33.707L664.684 35.4781V39.0201L667.892 40.7912L671.1 39.0201V35.4781L667.892 33.707Z" fill="#CECECE"/>
<path d="M673.988 34.0934L676.875 35.6713V38.8269L673.988 40.4047L671.1 38.8269V35.6713L673.988 34.0934ZM673.988 33.707L670.779 35.4781V39.0201L673.988 40.7912L677.196 39.0201V35.4781L673.988 33.707Z" fill="#CECECE"/>
<path d="M680.081 34.0934L682.969 35.6713V38.8269L680.081 40.4047L677.194 38.8269V35.6713L680.081 34.0934ZM680.081 33.707L676.873 35.4781V39.0201L680.081 40.7912L683.289 39.0201V35.4781L680.081 33.707Z" fill="#CECECE"/>
<path d="M686.179 34.0934L689.066 35.6713V38.8269L686.179 40.4047L683.292 38.8269V35.6713L686.179 34.0934ZM686.179 33.707L682.971 35.4781V39.0201L686.179 40.7912L689.387 39.0201V35.4781L686.179 33.707Z" fill="#CECECE"/>
<path d="M692.275 34.0934L695.162 35.6713V38.8269L692.275 40.4047L689.387 38.8269V35.6713L692.275 34.0934ZM692.275 33.707L689.066 35.4781V39.0201L692.275 40.7912L695.483 39.0201V35.4781L692.275 33.707Z" fill="#CECECE"/>
<path d="M698.37 34.0934L701.258 35.6713V38.8269L698.37 40.4047L695.483 38.8269V35.6713L698.37 34.0934ZM698.37 33.707L695.162 35.4781V39.0201L698.37 40.7912L701.579 39.0201V35.4781L698.37 33.707Z" fill="#CECECE"/>
<path d="M704.466 34.0934L707.353 35.6713V38.8269L704.466 40.4047L701.579 38.8269V35.6713L704.466 34.0934ZM704.466 33.707L701.258 35.4781V39.0201L704.466 40.7912L707.674 39.0201V35.4781L704.466 33.707Z" fill="#CECECE"/>
<path d="M710.562 34.0934L713.449 35.6713V38.8269L710.562 40.4047L707.674 38.8269V35.6713L710.562 34.0934ZM710.562 33.707L707.354 35.4781V39.0201L710.562 40.7912L713.77 39.0201V35.4781L710.562 33.707Z" fill="#CECECE"/>
<path d="M716.655 34.0934L719.543 35.6713V38.8269L716.655 40.4047L713.768 38.8269V35.6713L716.655 34.0934ZM716.655 33.707L713.447 35.4781V39.0201L716.655 40.7912L719.864 39.0201V35.4781L716.655 33.707Z" fill="#CECECE"/>
<path d="M722.751 34.0934L725.639 35.6713V38.8269L722.751 40.4047L719.864 38.8269V35.6713L722.751 34.0934ZM722.751 33.707L719.543 35.4781V39.0201L722.751 40.7912L725.959 39.0201V35.4781L722.751 33.707Z" fill="#CECECE"/>
<path d="M728.849 34.0934L731.736 35.6713V38.8269L728.849 40.4047L725.961 38.8269V35.6713L728.849 34.0934ZM728.849 33.707L725.641 35.4781V39.0201L728.849 40.7912L732.057 39.0201V35.4781L728.849 33.707Z" fill="#CECECE"/>
<path d="M734.943 34.0934L737.83 35.6713V38.8269L734.943 40.4047L732.055 38.8269V35.6713L734.943 34.0934ZM734.943 33.707L731.734 35.4781V39.0201L734.943 40.7912L738.151 39.0201V35.4781L734.943 33.707Z" fill="#CECECE"/>
<path d="M741.038 34.0934L743.926 35.6713V38.8269L741.038 40.4047L738.151 38.8269V35.6713L741.038 34.0934ZM741.038 33.707L737.83 35.4781V39.0201L741.038 40.7912L744.247 39.0201V35.4781L741.038 33.707Z" fill="#CECECE"/>
<path d="M747.135 34.0934L750.022 35.6713V38.8269L747.135 40.4047L744.248 38.8269V35.6713L747.135 34.0934ZM747.135 33.707L743.927 35.4781V39.0201L747.135 40.7912L750.343 39.0201V35.4781L747.135 33.707Z" fill="#CECECE"/>
<path d="M753.23 34.0934L756.117 35.6713V38.8269L753.23 40.4047L750.342 38.8269V35.6713L753.23 34.0934ZM753.23 33.707L750.021 35.4781V39.0201L753.23 40.7912L756.438 39.0201V35.4781L753.23 33.707Z" fill="#CECECE"/>
<path d="M759.325 34.0934L762.213 35.6713V38.8269L759.325 40.4047L756.438 38.8269V35.6713L759.325 34.0934ZM759.325 33.707L756.117 35.4781V39.0201L759.325 40.7912L762.534 39.0201V35.4781L759.325 33.707Z" fill="#CECECE"/>
<path d="M765.422 34.0934L768.309 35.6713V38.8269L765.422 40.4047L762.535 38.8269V35.6713L765.422 34.0934ZM765.422 33.707L762.214 35.4781V39.0201L765.422 40.7912L768.63 39.0201V35.4781L765.422 33.707Z" fill="#CECECE"/>
<path d="M652.654 39.2453L655.541 40.8231V43.9788L652.654 45.5566L649.766 43.9788V40.8231L652.654 39.2453ZM652.654 38.8911L649.445 40.6621V44.2042L652.654 45.9752L655.862 44.2042V40.6621L652.654 38.8911Z" fill="#CECECE"/>
<path d="M658.749 39.2453L661.637 40.8231V43.9788L658.749 45.5566L655.862 43.9788V40.8231L658.749 39.2453ZM658.749 38.8911L655.541 40.6621V44.2042L658.749 45.9752L661.957 44.2042V40.6621L658.749 38.8911Z" fill="#CECECE"/>
<path d="M664.845 39.2453L667.732 40.8231V43.9788L664.845 45.5566L661.958 43.9788V40.8231L664.845 39.2453ZM664.845 38.8911L661.637 40.6621V44.2042L664.845 45.9752L668.053 44.2042V40.6621L664.845 38.8911Z" fill="#CECECE"/>
<path d="M670.941 39.2453L673.828 40.8231V43.9788L670.941 45.5566L668.053 43.9788V40.8231L670.941 39.2453ZM670.941 38.8911L667.732 40.6621V44.2042L670.941 45.9752L674.149 44.2042V40.6621L670.941 38.8911Z" fill="#CECECE"/>
<path d="M677.036 39.2453L679.924 40.8231V43.9788L677.036 45.5566L674.149 43.9788V40.8231L677.036 39.2453ZM677.036 38.8911L673.828 40.6621V44.2042L677.036 45.9752L680.245 44.2042V40.6621L677.036 38.8911Z" fill="#CECECE"/>
<path d="M683.13 39.2453L686.017 40.8231V43.9788L683.13 45.5566L680.243 43.9788V40.8231L683.13 39.2453ZM683.13 38.8911L679.922 40.6621V44.2042L683.13 45.9752L686.338 44.2042V40.6621L683.13 38.8911Z" fill="#CECECE"/>
<path d="M689.228 39.2453L692.115 40.8231V43.9788L689.228 45.5566L686.34 43.9788V40.8231L689.228 39.2453ZM689.228 38.8911L686.02 40.6621V44.2042L689.228 45.9752L692.436 44.2042V40.6621L689.228 38.8911Z" fill="#CECECE"/>
<path d="M695.323 39.2453L698.211 40.8231V43.9788L695.323 45.5566L692.436 43.9788V40.8231L695.323 39.2453ZM695.323 38.8911L692.115 40.6621V44.2042L695.323 45.9752L698.532 44.2042V40.6621L695.323 38.8911Z" fill="#CECECE"/>
<path d="M701.419 39.2453L704.307 40.8231V43.9788L701.419 45.5566L698.532 43.9788V40.8231L701.419 39.2453ZM701.419 38.8911L698.211 40.6621V44.2042L701.419 45.9752L704.627 44.2042V40.6621L701.419 38.8911Z" fill="#CECECE"/>
<path d="M707.515 39.2453L710.402 40.8231V43.9788L707.515 45.5566L704.627 43.9788V40.8231L707.515 39.2453ZM707.515 38.8911L704.307 40.6621V44.2042L707.515 45.9752L710.723 44.2042V40.6621L707.515 38.8911Z" fill="#CECECE"/>
<path d="M713.611 39.2453L716.498 40.8231V43.9788L713.611 45.5566L710.723 43.9788V40.8231L713.611 39.2453ZM713.611 38.8911L710.402 40.6621V44.2042L713.611 45.9752L716.819 44.2042V40.6621L713.611 38.8911Z" fill="#CECECE"/>
<path d="M719.706 39.2453L722.594 40.8231V43.9788L719.706 45.5566L716.819 43.9788V40.8231L719.706 39.2453ZM719.706 38.8911L716.498 40.6621V44.2042L719.706 45.9752L722.914 44.2042V40.6621L719.706 38.8911Z" fill="#CECECE"/>
<path d="M725.8 39.2453L728.687 40.8231V43.9788L725.8 45.5566L722.913 43.9788V40.8231L725.8 39.2453ZM725.8 38.8911L722.592 40.6621V44.2042L725.8 45.9752L729.008 44.2042V40.6621L725.8 38.8911Z" fill="#CECECE"/>
<path d="M731.898 39.2453L734.785 40.8231V43.9788L731.898 45.5566L729.01 43.9788V40.8231L731.898 39.2453ZM731.898 38.8911L728.689 40.6621V44.2042L731.898 45.9752L735.106 44.2042V40.6621L731.898 38.8911Z" fill="#CECECE"/>
<path d="M737.991 39.2453L740.879 40.8231V43.9788L737.991 45.5566L735.104 43.9788V40.8231L737.991 39.2453ZM737.991 38.8911L734.783 40.6621V44.2042L737.991 45.9752L741.2 44.2042V40.6621L737.991 38.8911Z" fill="#CECECE"/>
<path d="M744.088 39.2453L746.975 40.8231V43.9788L744.088 45.5566L741.201 43.9788V40.8231L744.088 39.2453ZM744.088 38.8911L740.88 40.6621V44.2042L744.088 45.9752L747.296 44.2042V40.6621L744.088 38.8911Z" fill="#CECECE"/>
<path d="M750.184 39.2453L753.071 40.8231V43.9788L750.184 45.5566L747.296 43.9788V40.8231L750.184 39.2453ZM750.184 38.8911L746.976 40.6621V44.2042L750.184 45.9752L753.392 44.2042V40.6621L750.184 38.8911Z" fill="#CECECE"/>
<path d="M756.279 39.2453L759.166 40.8231V43.9788L756.279 45.5566L753.391 43.9788V40.8231L756.279 39.2453ZM756.279 38.8911L753.07 40.6621V44.2042L756.279 45.9752L759.487 44.2042V40.6621L756.279 38.8911Z" fill="#CECECE"/>
<path d="M762.374 39.2453L765.262 40.8231V43.9788L762.374 45.5566L759.487 43.9788V40.8231L762.374 39.2453ZM762.374 38.8911L759.166 40.6621V44.2042L762.374 45.9752L765.582 44.2042V40.6621L762.374 38.8911Z" fill="#CECECE"/>
<path d="M768.471 39.2453L771.358 40.8231V43.9788L768.471 45.5566L765.584 43.9788V40.8231L768.471 39.2453ZM768.471 38.8911L765.263 40.6621V44.2042L768.471 45.9752L771.679 44.2042V40.6621L768.471 38.8911Z" fill="#CECECE"/>
<path d="M649.605 44.4616L652.492 46.0395V49.1951L649.605 50.7729L646.717 49.1951V46.0717L649.605 44.4616ZM649.605 44.1074L646.396 45.8785V49.4205L649.605 51.1915L652.813 49.4205V45.8785L649.605 44.1074Z" fill="#CECECE"/>
<path d="M655.7 44.4616L658.588 46.0395V49.1951L655.7 50.7729L652.813 49.1951V46.0717L655.7 44.4616ZM655.7 44.1074L652.492 45.8785V49.4205L655.7 51.1915L658.909 49.4205V45.8785L655.7 44.1074Z" fill="#CECECE"/>
<path d="M661.796 44.4616L664.684 46.0395V49.1951L661.796 50.7729L658.909 49.1951V46.0717L661.796 44.4616ZM661.796 44.1074L658.588 45.8785V49.4205L661.796 51.1915L665.004 49.4205V45.8785L661.796 44.1074Z" fill="#CECECE"/>
<path d="M667.892 44.4616L670.779 46.0395V49.1951L667.892 50.7729L665.004 49.1951V46.0717L667.892 44.4616ZM667.892 44.1074L664.684 45.8785V49.4205L667.892 51.1915L671.1 49.4205V45.8785L667.892 44.1074Z" fill="#CECECE"/>
<path d="M673.988 44.4616L676.875 46.0395V49.1951L673.988 50.7729L671.1 49.1951V46.0717L673.988 44.4616ZM673.988 44.1074L670.779 45.8785V49.4205L673.988 51.1915L677.196 49.4205V45.8785L673.988 44.1074Z" fill="#CECECE"/>
<path d="M680.081 44.4616L682.969 46.0395V49.1951L680.081 50.7729L677.194 49.1951V46.0717L680.081 44.4616ZM680.081 44.1074L676.873 45.8785V49.4205L680.081 51.1915L683.289 49.4205V45.8785L680.081 44.1074Z" fill="#CECECE"/>
<path d="M686.179 44.4616L689.066 46.0395V49.1951L686.179 50.7729L683.292 49.1951V46.0717L686.179 44.4616ZM686.179 44.1074L682.971 45.8785V49.4205L686.179 51.1915L689.387 49.4205V45.8785L686.179 44.1074Z" fill="#CECECE"/>
<path d="M692.275 44.4616L695.162 46.0395V49.1951L692.275 50.7729L689.387 49.1951V46.0717L692.275 44.4616ZM692.275 44.1074L689.066 45.8785V49.4205L692.275 51.1915L695.483 49.4205V45.8785L692.275 44.1074Z" fill="#CECECE"/>
<path d="M698.37 44.4616L701.258 46.0395V49.1951L698.37 50.7729L695.483 49.1951V46.0717L698.37 44.4616ZM698.37 44.1074L695.162 45.8785V49.4205L698.37 51.1915L701.579 49.4205V45.8785L698.37 44.1074Z" fill="#CECECE"/>
<path d="M704.466 44.4616L707.353 46.0395V49.1951L704.466 50.7729L701.579 49.1951V46.0717L704.466 44.4616ZM704.466 44.1074L701.258 45.8785V49.4205L704.466 51.1915L707.674 49.4205V45.8785L704.466 44.1074Z" fill="#CECECE"/>
<path d="M710.562 44.4616L713.449 46.0395V49.1951L710.562 50.7729L707.674 49.1951V46.0717L710.562 44.4616ZM710.562 44.1074L707.354 45.8785V49.4205L710.562 51.1915L713.77 49.4205V45.8785L710.562 44.1074Z" fill="#CECECE"/>
<path d="M716.655 44.4616L719.543 46.0395V49.1951L716.655 50.7729L713.768 49.1951V46.0717L716.655 44.4616ZM716.655 44.1074L713.447 45.8785V49.4205L716.655 51.1915L719.864 49.4205V45.8785L716.655 44.1074Z" fill="#CECECE"/>
<path d="M722.751 44.4616L725.639 46.0395V49.1951L722.751 50.7729L719.864 49.1951V46.0717L722.751 44.4616ZM722.751 44.1074L719.543 45.8785V49.4205L722.751 51.1915L725.959 49.4205V45.8785L722.751 44.1074Z" fill="#CECECE"/>
<path d="M728.849 44.4616L731.736 46.0395V49.1951L728.849 50.7729L725.961 49.1951V46.0717L728.849 44.4616ZM728.849 44.1074L725.641 45.8785V49.4205L728.849 51.1915L732.057 49.4205V45.8785L728.849 44.1074Z" fill="#CECECE"/>
<path d="M734.943 44.4616L737.83 46.0395V49.1951L734.943 50.7729L732.055 49.1951V46.0717L734.943 44.4616ZM734.943 44.1074L731.734 45.8785V49.4205L734.943 51.1915L738.151 49.4205V45.8785L734.943 44.1074Z" fill="#CECECE"/>
<path d="M741.038 44.4616L743.926 46.0395V49.1951L741.038 50.7729L738.151 49.1951V46.0717L741.038 44.4616ZM741.038 44.1074L737.83 45.8785V49.4205L741.038 51.1915L744.247 49.4205V45.8785L741.038 44.1074Z" fill="#CECECE"/>
<path d="M747.135 44.4616L750.022 46.0395V49.1951L747.135 50.7729L744.248 49.1951V46.0717L747.135 44.4616ZM747.135 44.1074L743.927 45.8785V49.4205L747.135 51.1915L750.343 49.4205V45.8785L747.135 44.1074Z" fill="#CECECE"/>
<path d="M753.23 44.4616L756.117 46.0395V49.1951L753.23 50.7729L750.342 49.1951V46.0717L753.23 44.4616ZM753.23 44.1074L750.021 45.8785V49.4205L753.23 51.1915L756.438 49.4205V45.8785L753.23 44.1074Z" fill="#CECECE"/>
<path d="M759.325 44.4616L762.213 46.0395V49.1951L759.325 50.7729L756.438 49.1951V46.0717L759.325 44.4616ZM759.325 44.1074L756.117 45.8785V49.4205L759.325 51.1915L762.534 49.4205V45.8785L759.325 44.1074Z" fill="#CECECE"/>
<path d="M765.422 44.4616L768.309 46.0395V49.1951L765.422 50.7729L762.535 49.1951V46.0717L765.422 44.4616ZM765.422 44.1074L762.214 45.8785V49.4205L765.422 51.1915L768.63 49.4205V45.8785L765.422 44.1074Z" fill="#CECECE"/>
<path d="M652.654 49.6452L655.541 51.223V54.3787L652.654 55.9565L649.766 54.3787V51.223L652.654 49.6452ZM652.654 49.2588L649.445 51.0298V54.5719L652.654 56.3429L655.862 54.5719V51.0298L652.654 49.2588Z" fill="#CECECE"/>
<path d="M658.749 49.6452L661.637 51.223V54.3787L658.749 55.9565L655.862 54.3787V51.223L658.749 49.6452ZM658.749 49.2588L655.541 51.0298V54.5719L658.749 56.3429L661.957 54.5719V51.0298L658.749 49.2588Z" fill="#CECECE"/>
<path d="M664.845 49.6452L667.732 51.223V54.3787L664.845 55.9565L661.958 54.3787V51.223L664.845 49.6452ZM664.845 49.2588L661.637 51.0298V54.5719L664.845 56.3429L668.053 54.5719V51.0298L664.845 49.2588Z" fill="#CECECE"/>
<path d="M670.941 49.6452L673.828 51.223V54.3787L670.941 55.9565L668.053 54.3787V51.223L670.941 49.6452ZM670.941 49.2588L667.732 51.0298V54.5719L670.941 56.3429L674.149 54.5719V51.0298L670.941 49.2588Z" fill="#CECECE"/>
<path d="M677.036 49.6452L679.924 51.223V54.3787L677.036 55.9565L674.149 54.3787V51.223L677.036 49.6452ZM677.036 49.2588L673.828 51.0298V54.5719L677.036 56.3429L680.245 54.5719V51.0298L677.036 49.2588Z" fill="#CECECE"/>
<path d="M683.13 49.6452L686.017 51.223V54.3787L683.13 55.9565L680.243 54.3787V51.223L683.13 49.6452ZM683.13 49.2588L679.922 51.0298V54.5719L683.13 56.3429L686.338 54.5719V51.0298L683.13 49.2588Z" fill="#CECECE"/>
<path d="M689.228 49.6452L692.115 51.223V54.3787L689.228 55.9565L686.34 54.3787V51.223L689.228 49.6452ZM689.228 49.2588L686.02 51.0298V54.5719L689.228 56.3429L692.436 54.5719V51.0298L689.228 49.2588Z" fill="#CECECE"/>
<path d="M695.323 49.6452L698.211 51.223V54.3787L695.323 55.9565L692.436 54.3787V51.223L695.323 49.6452ZM695.323 49.2588L692.115 51.0298V54.5719L695.323 56.3429L698.532 54.5719V51.0298L695.323 49.2588Z" fill="#CECECE"/>
<path d="M701.419 49.6452L704.307 51.223V54.3787L701.419 55.9565L698.532 54.3787V51.223L701.419 49.6452ZM701.419 49.2588L698.211 51.0298V54.5719L701.419 56.3429L704.627 54.5719V51.0298L701.419 49.2588Z" fill="#CECECE"/>
<path d="M707.515 49.6452L710.402 51.223V54.3787L707.515 55.9565L704.627 54.3787V51.223L707.515 49.6452ZM707.515 49.2588L704.307 51.0298V54.5719L707.515 56.3429L710.723 54.5719V51.0298L707.515 49.2588Z" fill="#CECECE"/>
<path d="M713.611 49.6452L716.498 51.223V54.3787L713.611 55.9565L710.723 54.3787V51.223L713.611 49.6452ZM713.611 49.2588L710.402 51.0298V54.5719L713.611 56.3429L716.819 54.5719V51.0298L713.611 49.2588Z" fill="#CECECE"/>
<path d="M719.706 49.6452L722.594 51.223V54.3787L719.706 55.9565L716.819 54.3787V51.223L719.706 49.6452ZM719.706 49.2588L716.498 51.0298V54.5719L719.706 56.3429L722.914 54.5719V51.0298L719.706 49.2588Z" fill="#CECECE"/>
<path d="M725.8 49.6452L728.687 51.223V54.3787L725.8 55.9565L722.913 54.3787V51.223L725.8 49.6452ZM725.8 49.2588L722.592 51.0298V54.5719L725.8 56.3429L729.008 54.5719V51.0298L725.8 49.2588Z" fill="#CECECE"/>
<path d="M731.898 49.6452L734.785 51.223V54.3787L731.898 55.9565L729.01 54.3787V51.223L731.898 49.6452ZM731.898 49.2588L728.689 51.0298V54.5719L731.898 56.3429L735.106 54.5719V51.0298L731.898 49.2588Z" fill="#CECECE"/>
<path d="M737.991 49.6452L740.879 51.223V54.3787L737.991 55.9565L735.104 54.3787V51.223L737.991 49.6452ZM737.991 49.2588L734.783 51.0298V54.5719L737.991 56.3429L741.2 54.5719V51.0298L737.991 49.2588Z" fill="#CECECE"/>
<path d="M744.088 49.6452L746.975 51.223V54.3787L744.088 55.9565L741.201 54.3787V51.223L744.088 49.6452ZM744.088 49.2588L740.88 51.0298V54.5719L744.088 56.3429L747.296 54.5719V51.0298L744.088 49.2588Z" fill="#CECECE"/>
<path d="M750.184 49.6452L753.071 51.223V54.3787L750.184 55.9565L747.296 54.3787V51.223L750.184 49.6452ZM750.184 49.2588L746.976 51.0298V54.5719L750.184 56.3429L753.392 54.5719V51.0298L750.184 49.2588Z" fill="#CECECE"/>
<path d="M756.279 49.6452L759.166 51.223V54.3787L756.279 55.9565L753.391 54.3787V51.223L756.279 49.6452ZM756.279 49.2588L753.07 51.0298V54.5719L756.279 56.3429L759.487 54.5719V51.0298L756.279 49.2588Z" fill="#CECECE"/>
<path d="M762.374 49.6452L765.262 51.223V54.3787L762.374 55.9565L759.487 54.3787V51.223L762.374 49.6452ZM762.374 49.2588L759.166 51.0298V54.5719L762.374 56.3429L765.582 54.5719V51.0298L762.374 49.2588Z" fill="#CECECE"/>
<path d="M768.471 49.6452L771.358 51.223V54.3787L768.471 55.9565L765.584 54.3787V51.223L768.471 49.6452ZM768.471 49.2588L765.263 51.0298V54.5719L768.471 56.3429L771.679 54.5719V51.0298L768.471 49.2588Z" fill="#CECECE"/>
<path d="M646.398 56.4909V11.4814H770.513V56.4909" stroke="white" stroke-width="4.24091"/>
</g>
</svg>